<svg id="Layer_1" data-name="Layer 1" xmlns="http://www.w3.org/2000/svg" viewBox="0 0 2649.64 427.09"><defs><style>.cls-1{fill:#8600aa;}.cls-2{fill:#3a006a;}</style></defs><title>mlo</title><path class="cls-1" d="M2734,921.18c-11.6-31.17-23.11-62.1-34.74-93.37-4.82.32-9.53,1-14.22.85s-9.46-1.11-14.65-1.78a6.83,6.83,0,0,0-1.25,1.75c-4.25,11.55-8.32,23.16-12.74,34.64-1.34,3.46.45,5.49,1.94,8.05a14.62,14.62,0,0,1-.45,16.2c-3.4,5.08-8.52,7.67-14.74,6.71a14.93,14.93,0,0,1-12.43-10.44,15.24,15.24,0,0,1,9.52-19.33c2.13-.75,4.37-1.16,6.8-1.78,4.8-13.27,9.59-26.51,14.1-38.95-7.23-6.92-13.93-13.32-21.15-20.24-1.25.45-3.39,1.12-5.46,1.94-32.19,12.79-64.35,25.66-96.58,38.35-3.87,1.52-6.09,3.45-7.38,7.75-3,10.05-12.31,16-22.5,15.32a22.73,22.73,0,0,1-20.61-17.17c-2.36-10.13,2-20.36,10.69-25.19a22.41,22.41,0,0,1,27.13,3.47,35.3,35.3,0,0,1,3,3.85l107-42.63c-2.7-13.58-1.75-26.51,4.8-39l-41.65-33.2c-5,1.66-10.17,3.45-15.06.43a21.85,21.85,0,0,1-6.88-6.4c-3.63-5.64-2.37-13.5,2.29-18.29a15.55,15.55,0,0,1,17.67-3c6.79,3.18,9.37,9.54,8,20.32l40.82,32.38c9.41-10.72,20.63-17.58,34.48-19.45,1.45-5.23,2-82.14.75-99.47l-5.27-2.33c-14.15-6.29-22.34-20.42-20.47-35.3,1.85-14.71,12.81-26,28-28.76,17.45-3.2,35.73,10.66,37.65,28.58,1.88,17.58-7.4,31.64-22.41,36.43a28.83,28.83,0,0,0-3.2,1.44v99.22c19.75,4.14,34.11,15.21,41.45,34.92l39.93-11.49c.45-3.22.78-6.34,1.32-9.43,2.59-14.8,15.22-25.5,29.68-25.23s27.49,11.71,29.3,25.83c2,15.22-6.71,29.24-21.31,33.21-11.64,3.16-22.15.51-30.53-8.63-1.83-2-3.32-4.31-5.29-6.89-6.42,1.79-13,3.58-19.48,5.45s-13.11,3.84-19.65,5.76c-1.07,9.65-2.13,19.25-3.25,29.37,1.33.56,3.17,1.39,5.05,2.11q51.11,19.5,102.19,39c3,1.17,5.57,1.74,8.92-.14,5.64-3.16,11.77-.84,14.56,4.55a11.07,11.07,0,0,1-4.53,14.75,10.36,10.36,0,0,1-14.58-4.49,10.82,10.82,0,0,0-6.17-5.71q-54.34-20.55-108.63-41.28a7.45,7.45,0,0,0-1.33-.26L2713,823l34.79,93.26c11.47-.27,21.66,3,29.24,11.94,4.65,5.52,7.58,11.81,7.79,19.26.51,17.27-8.84,30.7-24.58,35-15,4.1-30.72-2.93-38.12-17C2714.39,950.72,2718.53,934.51,2734,921.18Z" transform="translate(-219.21 -556.56)"/><path class="cls-2" d="M422.86,756.33l-69,92.52L285,756.62a10.34,10.34,0,0,0-1.35.36c-.27.14-.65.34-.69.57a14.76,14.76,0,0,0-.41,3q-.18,54.46-.33,108.94c0,.3-.25.59-.77,1.72H238.54V860.37c0-49-.16-98,.14-146.94.06-8.38-1.68-15.55-6.42-22.41-4.51-6.53-8.32-13.55-13-21.37,3.64-.42,6.14-.92,8.65-.95,10.33-.09,20.68.31,31-.17,6.35-.29,10.35,1.83,14.16,7,23.73,32.17,47.81,64.08,71.78,96.07,2.77,3.69,5.59,7.34,9,11.82,3.17-4.09,5.82-7.42,8.36-10.81,24.18-32.26,48.44-64.45,72.39-96.86,3.74-5.07,7.59-7.47,14-7.22,12.6.49,25.24.14,38.39.14.47,5.09-2.44,8.22-4.69,11.05-11.18,14-13.82,29.78-13.44,47.48,1,44.3.32,88.63.32,132.95v11.28H425.4V757.05Z" transform="translate(-219.21 -556.56)"/><path class="cls-2" d="M1027.91,828.55v43.06c-14.79.53-29,1.53-43-2.6-11.65-3.45-20.56-10.91-27.31-20.79-5.83-8.51-11.17-17.35-16.65-26.1-3.71-5.92-7.29-11.93-10.94-17.9-9.51-15.58-9.51-15.58-28.12-14.74-16.78.76-26.68,3.6-40.59,11.9v69.88H822.07c-1.88-6.83-2.61-185.57-.66-202.13,3-.15,6.24-.44,9.45-.45q57,0,113.94,0c12.71,0,25.29.89,36.87,7.09,22.21,11.89,32.55,31.06,32.57,55.54,0,23.68-11,41.35-32.46,52.09-2.07,1-4.24,1.92-6.36,2.87L968,789.6c7.39,11.24,11.82,23.6,22.25,32C1001.1,830.35,1014.36,827.36,1027.91,828.55ZM861.63,758.71c9.11-2.65,16.93-5.43,25-7.16,18.66-4,37.67-3.41,56.62-3.43,4.65,0,9.37.18,13.93-.55,9.51-1.53,15.58-8.56,15.94-17.67.42-10.22-3.82-16.39-13.89-19a56.42,56.42,0,0,0-13.8-1.5c-25.27-.15-50.55-.1-75.83,0-2.53,0-5.06.47-8,.76Z" transform="translate(-219.21 -556.56)"/><path class="cls-2" d="M1471.3,878.06c-28.84-.37-59.75-11.23-84.7-36.65-42.72-43.49-39.69-132.07,32-165.69,37.14-17.41,75.41-18.44,113.43-3.32,36.57,14.55,59.3,41.53,64.29,81,5.2,41.12-8.3,75.5-42,100.71C1531.61,871,1505.63,878.13,1471.3,878.06Zm7.39-175.75-.37,1c-6.59.74-13.23,1.16-19.75,2.32a89.9,89.9,0,0,0-15.34,4.24c-24.79,9.18-39.3,27-41.83,53.27-2.57,26.76,7.4,48.15,30.84,62.43,12.23,7.44,25.86,10.55,39.9,11.37,21.19,1.22,41-3.31,58.1-16.66,20.22-15.79,27.71-37,24.17-61.84-3.47-24.35-18.28-40.34-41-48.36C1502.34,706.17,1490.31,704.83,1478.69,702.31Z" transform="translate(-219.21 -556.56)"/><path class="cls-2" d="M1303.39,870.84c-36.62,4.63-55.05-2.53-77.37-34.29-7.45-10.6-13.58-22.14-20.36-33.22-1.7-2.78-3.54-5.47-5.84-9-2.45,3.49-4.41,6.13-6.2,8.87-13.47,20.64-27.09,41.2-40.22,62-3.28,5.19-7,7.08-12.93,6.86-10.91-.4-21.84-.11-33.36-.11V669.36h41.81v126l1.62.59c2.13-2.78,4.35-5.49,6.38-8.33,26.55-37.12,53.18-74.18,79.48-111.48,3.87-5.49,7.91-8,14.73-7.68,13.21.52,26.46.15,42.19.15l-66.68,91.67c10.52,17.47,20.6,35,31.54,52.07,6.93,10.76,17.45,16.12,30.57,15.71,4.63-.15,9.28,0,13.7,0C1304.94,835.54,1305.35,859.72,1303.39,870.84Z" transform="translate(-219.21 -556.56)"/><path class="cls-2" d="M606,664c14.2,0,26.73.07,39.26,0,4.36,0,5.37,3.33,6.88,6.18,6.53,12.36,13,24.76,19.46,37.13Q712,784.13,752.28,861c1.65,3.14,3.15,6.37,5.16,10.46H713.86c-5.15-9.72-10.42-19.64-15.69-29.6-42.58-2.66-83.24,3.55-122,20.72-2.12.94-4.62,1.79-6,3.46-5.13,6.15-11.82,6.21-18.91,6-9-.27-17.92-.06-28.55-.06,2.17-4.32,3.68-7.5,5.32-10.6,28.81-54.39,57.53-108.83,86.6-163.08,3.37-6.27,4-11.29.07-17.35C611.48,676.08,609.32,670.55,606,664ZM593.25,819.07l1.58,1.49c26-12.46,54-15.51,84-16-13.4-25.69-25.91-49.68-39.25-75.28Z" transform="translate(-219.21 -556.56)"/><path class="cls-2" d="M2031.08,664.16H2074q53.94,102.92,108.46,206.94a39.73,39.73,0,0,1-5.06.85c-12.63,0-25.27,0-38.37,0-4.43-8.44-8.84-16.62-13-24.91-1.78-3.52-3.78-5.59-8.25-5.74-38.76-1.26-76.33,4.2-112.23,19.36-4,1.68-8.48,3.17-11.33,6.12-4.75,4.9-10.06,5.45-16.21,5.26-9.54-.28-19.09-.07-30.34-.07,2.47-5,4.11-8.49,5.92-11.9,28.5-53.84,56.88-107.73,85.71-161.39,3.63-6.75,4.12-12-.07-18.32C2036.15,675.79,2034.18,670.48,2031.08,664.16Zm71.72,140.5c-5.83-15.42-33.86-67.87-38.77-73-10.6,15.91-43.42,81.65-44,88.72C2046.07,808.28,2073.58,804.88,2102.8,804.66Z" transform="translate(-219.21 -556.56)"/><path class="cls-2" d="M1711.79,758.05c27-13.5,55.31-10.59,84.06-10.75v39.62c-3.45.17-6.95.37-10.46.51-15.3.61-30.65.71-45.88,2-6.8.6-13.37,3.67-20,5.62-6.3,1.83-8.67,5.65-8.47,12.53.52,17.65.17,35.33.17,53v10.63h-39.34v-201c7.5-2,138.44-2.41,150.31-.45v39.36H1711.79Z" transform="translate(-219.21 -556.56)"/><path class="cls-2" d="M2284.67,871.39h-38.94v-202h38.94Z" transform="translate(-219.21 -556.56)"/><path class="cls-2" d="M1915.76,849a23.1,23.1,0,1,1-46.11-2.94c1.07-12.81,11.89-22.72,24-22A23.71,23.71,0,0,1,1915.76,849Z" transform="translate(-219.21 -556.56)"/></svg>